<svg width="889" height="700" viewBox="0 0 889 700" fill="none" xmlns="http://www.w3.org/2000/svg">
<rect width="889" height="700" fill="#0066FF"/>
<path d="M541.001 403.5L521.001 383.5V272H409.501L389.501 252H521.001C526.501 252 531.211 253.956 535.131 257.87C539.044 261.79 541.001 266.5 541.001 272V403.5ZM529.001 448L513.001 432H381.001C375.501 432 370.791 430.043 366.871 426.13C362.958 422.21 361.001 417.5 361.001 412V280L345.001 264L359.001 250L543.001 434L529.001 448ZM391.001 392L421.001 352L443.501 382L451.751 371L381.001 300.25V412H492.751L472.751 392H391.001Z" fill="white"/>
</svg>
