<?xml version="1.0" standalone="no"?>
<!DOCTYPE svg PUBLIC "-//W3C//DTD SVG 20010904//EN"
 "http://www.w3.org/TR/2001/REC-SVG-20010904/DTD/svg10.dtd">
<svg version="1.0" xmlns="http://www.w3.org/2000/svg"
 width="1080.000000pt" height="1080.000000pt" viewBox="0 0 1080.000000 1080.000000"
 preserveAspectRatio="xMidYMid meet">
<metadata>
Created by potrace 1.14, written by Peter Selinger 2001-2017
</metadata>
<g transform="translate(0.000000,1080.000000) scale(0.100000,-0.100000)"
fill="#000000" stroke="none">
<path d="M4232 7100 c-14 -35 -185 -476 -429 -1110 -69 -179 -140 -363 -158
-410 -19 -47 -72 -186 -120 -310 -48 -124 -97 -252 -110 -285 -13 -33 -119
-307 -235 -610 -270 -700 -369 -957 -413 -1070 -136 -352 -197 -512 -197 -518
0 -4 338 -6 752 -5 l752 3 43 125 c24 69 52 150 62 180 11 30 52 147 91 260
40 113 77 221 83 240 6 19 15 38 20 41 4 3 436 6 958 6 861 0 951 -2 959 -16
13 -25 143 -385 275 -763 l28 -78 773 0 c491 0 774 4 774 10 0 5 -7 24 -15 42
-8 18 -42 105 -76 193 -113 295 -279 723 -300 773 -5 13 -25 67 -45 120 -20
53 -39 102 -43 107 -4 6 -14 30 -21 55 -7 25 -17 50 -20 55 -4 6 -17 37 -29
70 -24 65 -54 142 -106 275 -32 81 -115 294 -189 485 -76 197 -130 337 -187
482 -65 166 -168 432 -322 828 -19 50 -62 160 -95 245 -33 85 -79 205 -103
265 -23 61 -63 164 -89 230 l-47 120 -1103 0 -1103 1 -15 -36z m1113 -912 c3
-13 10 -32 15 -43 5 -11 23 -60 41 -110 17 -49 46 -128 64 -175 18 -47 56
-146 83 -220 28 -74 57 -148 63 -165 7 -16 13 -34 15 -40 2 -5 26 -71 54 -145
28 -74 59 -157 69 -185 10 -27 57 -156 105 -286 47 -129 86 -238 86 -240 0 -8
-1208 -5 -1215 3 -7 7 17 75 267 743 66 176 130 347 142 380 96 259 192 505
198 505 4 0 9 -10 13 -22z"/>
</g>
</svg>
